<?xml version="1.0" standalone="no"?>
<!DOCTYPE svg PUBLIC "-//W3C//DTD SVG 20010904//EN"
 "http://www.w3.org/TR/2001/REC-SVG-20010904/DTD/svg10.dtd">
<svg version="1.0" xmlns="http://www.w3.org/2000/svg"
 width="2048.000000pt" height="2048.000000pt" viewBox="0 0 2048.000000 2048.000000"
 preserveAspectRatio="xMidYMid meet">

<g transform="translate(0.000000,2048.000000) scale(0.100000,-0.100000)"
fill="#000000" stroke="none">
<path d="M12337 17967 c-17 -19 -52 -61 -77 -93 -112 -144 -262 -187 -572
-165 -261 19 -386 15 -583 -20 -82 -14 -276 -76 -335 -106 -14 -7 -28 -13 -32
-13 -24 0 -358 -202 -413 -250 -38 -33 -196 -111 -258 -127 -78 -20 -189 -13
-331 21 -56 13 -126 27 -156 31 -30 4 -59 11 -65 15 -9 7 -74 17 -175 26 -19
2 -73 8 -120 14 -254 32 -669 40 -1060 21 -220 -11 -285 -16 -605 -46 -38 -4
-74 -11 -80 -15 -5 -4 -39 -11 -75 -15 -36 -4 -94 -13 -130 -21 -185 -39 -374
-86 -450 -110 -47 -14 -113 -32 -147 -38 -34 -6 -65 -14 -69 -19 -10 -10 -232
-9 -238 2 -3 5 -26 12 -51 16 -91 13 -230 94 -462 270 -199 151 -245 172 -308
143 -32 -14 -39 -43 -31 -121 9 -74 78 -285 112 -338 13 -21 24 -41 24 -44 0
-4 12 -22 26 -41 40 -52 30 -60 -85 -67 -107 -5 -172 -27 -248 -83 -101 -74
-221 -245 -230 -328 -9 -79 45 -144 111 -133 19 3 62 20 97 37 113 56 195 57
265 3 19 -14 37 -23 40 -20 9 9 -34 84 -61 105 -64 51 -164 53 -277 7 -96 -39
-98 -24 -12 100 56 80 117 134 192 171 52 25 70 28 197 33 l140 6 3 32 c3 26
-3 36 -31 57 -53 40 -112 165 -161 336 -21 76 -38 179 -32 196 8 21 59 -9 156
-91 106 -89 267 -211 340 -256 83 -52 137 -76 225 -100 70 -19 96 -21 220 -16
144 5 182 13 410 82 50 15 119 33 155 40 36 7 72 16 80 19 61 26 521 93 725
106 524 34 855 34 1251 0 200 -17 614 -87 656 -110 10 -6 78 -10 151 -10 163
0 207 14 362 119 57 39 116 76 131 81 14 6 60 45 102 87 108 107 215 157 472
219 102 25 114 26 385 22 424 -5 644 -2 658 10 6 5 30 15 52 22 77 24 173 100
211 166 19 32 29 21 32 -36 6 -85 -27 -256 -52 -272 -6 -4 -23 -8 -37 -8 -14
0 -43 -9 -65 -19 -38 -19 -38 -20 -14 -25 14 -4 57 -11 95 -16 156 -21 239
-55 342 -138 11 -9 36 -28 54 -42 74 -56 230 -204 297 -282 87 -102 147 -191
191 -283 18 -38 37 -78 42 -87 11 -22 89 -233 89 -241 0 -4 11 -30 24 -59 13
-29 36 -87 52 -128 15 -41 47 -113 71 -159 24 -46 41 -87 38 -90 -3 -2 -40 9
-83 26 -93 37 -142 54 -142 47 0 -9 88 -88 145 -128 105 -75 152 -96 222 -96
59 0 63 2 87 33 15 19 26 44 26 55 0 18 -6 22 -32 22 -28 1 -42 11 -93 69 -73
84 -84 103 -166 316 -23 61 -48 124 -54 140 -12 30 -20 50 -56 152 -30 86 -47
124 -108 239 -31 57 -94 153 -125 191 -76 93 -224 235 -325 313 -18 14 -40 32
-50 40 -62 53 -249 150 -289 150 -10 0 -12 7 -9 23 17 68 18 120 3 249 -10 79
-21 152 -26 163 -5 11 -12 35 -15 52 -9 47 -21 49 -58 10z"/>
<path d="M5624 16309 c-5 -8 -45 -45 -89 -82 -150 -128 -356 -392 -460 -592
-26 -50 -51 -95 -55 -100 -5 -6 -12 -24 -16 -40 -4 -17 -10 -35 -15 -40 -12
-16 -117 -334 -125 -380 -3 -22 -10 -44 -14 -50 -4 -5 -11 -59 -15 -120 -3
-60 -11 -123 -16 -140 -5 -16 -13 -145 -18 -285 -10 -259 -2 -525 19 -605 6
-22 14 -80 19 -130 20 -198 79 -409 201 -715 12 -30 32 -86 45 -125 51 -156
137 -361 198 -475 122 -224 182 -318 287 -446 105 -129 206 -239 330 -360 151
-147 286 -312 316 -384 3 -8 12 -28 19 -45 91 -214 100 -428 25 -583 -34 -70
-81 -127 -123 -148 -24 -13 -52 -14 -156 -9 -119 7 -127 6 -145 -13 -18 -21
-18 -22 5 -68 25 -53 87 -118 157 -166 84 -57 80 -66 -27 -60 -160 9 -193 -15
-146 -109 57 -115 241 -270 415 -349 8 -4 29 -14 45 -22 44 -22 162 -64 220
-78 28 -7 57 -15 65 -18 8 -3 49 -11 90 -18 41 -7 93 -17 114 -22 72 -19 297
-35 415 -29 198 10 393 67 505 148 46 32 74 33 56 0 -5 -10 -14 -36 -19 -57
-5 -22 -21 -70 -36 -109 -14 -38 -35 -95 -45 -125 -11 -30 -24 -64 -29 -75 -5
-11 -25 -54 -44 -95 -19 -41 -38 -86 -42 -100 -4 -14 -12 -30 -17 -37 -5 -6
-27 -47 -49 -90 -47 -93 -111 -200 -181 -303 -52 -75 -279 -299 -523 -515
-211 -187 -270 -240 -305 -275 -82 -83 -197 -222 -395 -480 -60 -78 -132 -170
-158 -204 -145 -185 -323 -491 -433 -741 -38 -88 -97 -287 -113 -385 -6 -36
-16 -87 -23 -115 -16 -70 -16 -598 1 -685 6 -36 18 -104 25 -153 7 -48 13 -90
14 -92 6 -13 12 -36 26 -100 25 -117 120 -438 151 -510 7 -16 20 -50 28 -75
24 -69 107 -282 127 -325 5 -11 28 -65 51 -120 40 -96 84 -196 114 -260 8 -16
30 -68 50 -115 38 -89 151 -321 313 -645 176 -352 380 -698 563 -955 33 -46
71 -114 169 -302 67 -130 152 -270 217 -360 26 -36 55 -76 63 -88 8 -12 23
-33 33 -45 9 -13 17 -26 17 -29 0 -4 27 -44 59 -89 33 -45 69 -95 81 -112 61
-87 137 -185 170 -221 20 -22 39 -45 41 -50 6 -15 82 -74 95 -74 19 0 64 89
64 126 0 23 -11 46 -37 78 -68 82 -108 133 -123 156 -8 13 -24 35 -35 49 -19
24 -35 46 -75 106 -8 13 -36 53 -62 89 -27 37 -48 70 -48 73 0 4 -18 28 -40
54 -22 26 -40 50 -40 53 0 3 -28 42 -62 87 -35 45 -70 92 -78 104 -18 27 -81
115 -121 170 -16 22 -40 65 -54 95 -14 30 -43 77 -64 105 -70 94 -91 124 -91
129 0 6 -52 89 -132 209 -21 32 -38 59 -38 61 0 2 -18 33 -40 67 -41 67 -130
216 -166 278 -11 20 -31 54 -44 76 -55 95 -71 124 -109 196 -22 43 -45 99 -52
125 -6 27 -18 59 -26 72 -61 98 -272 526 -378 767 -31 72 -65 149 -76 172 -10
24 -19 47 -19 53 0 6 -9 27 -20 47 -11 21 -20 42 -20 48 0 5 -14 44 -31 85
-67 164 -138 378 -179 541 -17 68 -36 139 -42 158 -33 107 -77 460 -77 632 -1
125 15 322 28 354 5 11 16 63 26 115 10 52 21 102 25 110 4 8 20 56 36 105 15
50 33 101 40 115 81 178 153 311 265 494 54 88 171 247 185 253 8 3 21 19 29
37 38 77 465 532 679 721 43 39 106 91 140 116 62 48 191 177 303 304 l62 70
28 -34 c160 -193 363 -392 561 -552 42 -34 213 -159 217 -159 3 0 29 -18 58
-39 154 -116 573 -338 787 -416 41 -15 89 -33 105 -40 126 -53 400 -125 590
-156 487 -80 894 -34 1225 140 101 53 162 96 257 182 72 65 93 79 113 75 14
-2 82 -15 153 -28 l127 -23 108 -86 c59 -47 132 -104 162 -126 156 -113 378
-323 485 -456 116 -145 215 -357 259 -560 9 -39 20 -81 25 -92 18 -41 54 -315
73 -555 12 -156 15 -675 4 -805 -3 -44 -11 -163 -16 -265 -13 -240 -49 -639
-60 -665 -4 -11 -17 -94 -28 -185 -25 -201 -80 -548 -122 -770 -17 -91 -33
-185 -36 -210 -3 -25 -10 -54 -14 -65 -5 -11 -16 -63 -25 -115 -9 -52 -19
-104 -24 -115 -10 -23 -66 -300 -85 -418 -7 -43 -18 -83 -24 -89 -7 -7 -12
-24 -12 -39 0 -15 -4 -30 -9 -33 -4 -3 -11 -33 -15 -67 -4 -33 -11 -70 -16
-82 -8 -23 -14 -44 -55 -197 -14 -52 -30 -103 -35 -112 -6 -10 -10 -23 -10
-30 0 -14 -76 -260 -91 -293 -18 -40 -39 -140 -39 -183 0 -24 -5 -52 -11 -63
-7 -15 -7 -24 1 -34 8 -10 8 -31 0 -82 -22 -130 -23 -164 -8 -158 13 5 48 74
48 95 0 5 9 25 20 45 11 20 20 40 20 46 0 6 22 43 48 82 63 95 82 138 116 262
10 33 24 83 33 110 8 28 22 79 29 115 8 36 19 83 25 105 15 61 39 173 50 240
5 33 14 69 19 80 15 34 42 173 35 185 -3 5 -15 10 -26 10 -24 0 -24 13 0 59
27 50 59 142 77 220 38 164 57 250 66 306 5 33 13 74 18 90 5 17 16 77 25 135
9 58 20 114 25 125 10 24 48 256 61 375 5 47 13 96 19 110 5 14 14 68 20 120
6 52 15 111 20 130 6 19 19 118 30 220 12 102 28 205 36 230 9 25 15 56 14 70
-2 52 -2 80 5 265 4 105 8 199 8 210 1 11 14 30 29 43 15 13 57 67 92 120 36
53 85 120 108 148 24 28 96 117 160 197 159 197 283 313 386 360 41 19 63 22
169 20 91 -1 130 -6 154 -19 47 -24 128 -82 174 -124 22 -21 69 -63 105 -95
36 -33 87 -88 114 -124 28 -36 73 -94 100 -128 28 -34 67 -83 86 -109 19 -26
73 -96 120 -155 47 -59 123 -172 170 -250 47 -78 98 -153 113 -168 67 -63 184
-306 226 -468 32 -125 30 -341 -4 -480 -23 -93 -61 -207 -84 -250 -5 -10 -26
-52 -46 -93 -21 -41 -55 -104 -77 -140 -21 -36 -44 -74 -51 -85 -7 -11 -14
-22 -17 -25 -3 -3 -14 -18 -24 -35 -41 -64 -226 -306 -321 -419 -55 -65 -113
-135 -130 -156 -16 -21 -91 -104 -165 -185 -74 -81 -151 -166 -169 -189 -19
-22 -55 -64 -80 -92 -61 -68 -133 -159 -185 -236 -23 -35 -73 -107 -109 -161
-37 -55 -67 -102 -68 -105 0 -4 -20 -34 -45 -67 -24 -33 -48 -69 -53 -80 -5
-12 -16 -27 -25 -34 -9 -7 -16 -18 -16 -24 0 -6 -7 -17 -15 -26 -30 -32 -65
-79 -65 -88 0 -5 -11 -24 -25 -43 -14 -18 -23 -35 -21 -37 2 -3 26 7 53 20 46
24 233 202 271 258 9 14 32 40 50 57 17 17 32 34 32 38 0 4 17 26 38 50 20 23
55 66 77 95 22 29 52 65 67 81 15 16 31 36 36 44 13 23 103 120 297 322 236
245 241 251 297 362 19 36 79 124 134 195 131 169 256 349 341 490 72 121 175
370 195 473 6 32 15 62 19 67 4 6 13 70 20 143 10 104 10 154 0 238 -6 58 -16
113 -20 122 -18 37 -59 182 -52 186 4 3 40 -11 79 -30 89 -44 220 -73 372 -84
63 -5 169 -14 235 -20 151 -14 525 -14 625 0 41 6 104 15 140 20 146 19 288
58 455 125 33 13 72 26 87 29 29 6 42 35 54 116 4 25 10 50 14 55 4 6 10 118
14 250 4 134 11 244 16 249 6 6 10 32 10 58 0 44 2 48 24 48 14 0 28 -4 31
-10 11 -17 101 -11 152 11 55 23 94 57 131 114 54 82 89 177 113 300 6 28 17
84 26 125 8 41 19 122 25 180 5 57 13 109 18 115 15 18 22 350 10 500 -5 77
-15 214 -21 305 -6 91 -14 174 -19 185 -4 11 -16 40 -25 65 -9 26 -34 60 -57
81 -41 37 -70 46 -203 67 l-50 8 1 99 c1 55 5 120 10 145 5 25 8 64 6 87 l-3
42 -56 11 c-105 22 -148 25 -214 17 -39 -6 -197 -5 -400 2 -958 32 -1400 33
-1694 2 -49 -5 -103 -10 -119 -10 l-29 -1 7 -264 7 -265 -48 -48 c-26 -27 -55
-62 -63 -78 -29 -60 -76 -122 -165 -220 -50 -55 -116 -131 -147 -170 -31 -38
-97 -115 -147 -170 -54 -59 -98 -118 -107 -142 -19 -48 -28 -51 -64 -23 -15
12 -41 20 -65 20 -35 0 -47 -6 -82 -42 -22 -24 -50 -61 -61 -83 -20 -38 -58
-156 -64 -200 -3 -17 -11 -20 -48 -19 -25 1 -65 7 -90 14 -78 21 -196 5 -282
-37 -171 -85 -418 -336 -514 -524 -15 -30 -50 -84 -78 -121 -28 -36 -59 -81
-69 -99 -17 -30 -19 -31 -34 -16 -14 14 -15 23 -4 69 16 68 9 529 -12 823 -13
188 -57 500 -73 526 -3 5 -14 46 -25 91 -48 201 -142 408 -252 553 -69 92
-134 167 -168 195 -23 19 -59 49 -78 66 -30 25 -64 52 -126 96 -5 4 -37 29
-70 56 -58 46 -193 137 -265 178 -19 11 -35 27 -35 35 0 11 35 15 194 21 107
4 206 11 220 17 14 5 48 12 74 16 48 6 192 50 257 78 20 9 44 25 54 36 16 18
17 21 3 27 -19 7 -125 1 -367 -21 -202 -18 -615 -15 -700 5 -25 5 -79 16 -121
24 -126 24 -337 92 -364 117 -5 5 -14 9 -20 9 -19 0 -188 95 -299 167 -139 91
-286 206 -403 316 -171 161 -188 176 -192 172 -2 -3 11 -21 29 -42 18 -21 51
-60 74 -86 130 -153 350 -355 496 -458 51 -35 102 -72 114 -81 l21 -18 -26
-23 c-16 -15 -51 -29 -90 -36 -35 -7 -77 -18 -94 -24 -41 -16 -393 -16 -465 0
-30 7 -113 21 -185 32 -177 26 -471 95 -570 132 -28 10 -59 19 -69 19 -10 0
-32 6 -49 14 -18 8 -52 21 -77 30 -25 8 -74 27 -110 42 -36 14 -78 32 -95 38
-29 12 -95 42 -165 73 -19 9 -47 25 -62 35 -14 10 -31 18 -36 18 -19 0 -330
178 -440 251 -96 65 -202 140 -257 185 -11 9 -72 54 -135 100 -221 163 -280
209 -280 215 0 4 24 56 54 116 97 196 172 390 222 573 9 36 23 85 29 110 7 25
20 77 29 115 34 145 44 176 60 194 9 10 16 24 16 31 0 7 12 48 27 89 27 74 27
83 30 330 2 140 5 256 6 258 2 1 23 -11 47 -28 43 -29 49 -30 133 -27 l88 3
32 -76 c18 -41 40 -87 50 -102 9 -14 17 -30 17 -35 0 -5 22 -40 49 -78 47 -67
117 -140 157 -162 16 -9 19 -21 17 -89 -2 -103 -18 -258 -31 -308 -6 -22 -24
-56 -40 -74 l-29 -35 -60 23 c-38 14 -76 21 -104 19 -40 -3 -44 -6 -47 -32 -2
-15 2 -42 8 -60 15 -38 40 -96 51 -116 5 -8 18 -35 29 -59 33 -71 106 -166
161 -210 28 -23 56 -41 62 -41 6 0 19 -8 29 -17 16 -14 39 -17 125 -18 l105 0
53 58 c39 42 57 56 70 51 15 -6 16 -3 10 17 -5 13 -8 31 -7 39 1 37 -8 44 -31
23 -176 -161 -380 -99 -516 156 -23 45 -40 85 -37 88 3 3 25 -2 50 -11 72 -27
117 -3 173 92 l28 47 0 357 c0 272 3 360 13 369 15 16 16 43 1 33 -20 -12 -40
-74 -50 -157 -11 -93 -17 -117 -28 -117 -25 0 -146 257 -194 412 -16 53 -13
58 61 88 40 15 62 45 62 81 0 21 -10 34 -48 58 -27 17 -58 41 -69 53 -34 38
-116 167 -173 272 l-53 99 23 19 c12 10 28 18 35 18 20 0 75 61 101 112 13 27
27 76 31 110 4 45 8 56 14 41 4 -12 12 -24 17 -27 6 -3 13 -25 17 -49 9 -52
60 -196 75 -211 8 -8 16 -4 30 14 21 28 19 80 -6 135 -23 52 -62 178 -74 240
-6 33 -16 74 -21 90 -8 28 -24 181 -36 353 -2 39 -8 72 -13 72 -17 0 -16 -264
2 -482 l5 -57 -41 2 -41 2 -6 -72 c-15 -165 -103 -224 -287 -193 -40 6 -74 16
-78 21 -3 5 -14 9 -25 9 -38 0 -263 109 -367 177 -63 42 -224 161 -232 172 -3
3 -41 36 -85 73 -266 221 -535 579 -576 763 -31 145 -38 201 -39 311 0 120 13
231 31 249 5 5 9 21 9 35 0 32 52 180 84 240 79 146 93 171 111 193 11 13 31
39 44 58 140 197 331 308 596 347 119 18 282 -12 355 -65 108 -79 234 -268
266 -401 9 -37 21 -72 25 -77 4 -6 11 -31 15 -55 4 -25 10 -49 14 -55 4 -5 13
-32 20 -60 7 -27 25 -75 39 -105 24 -51 26 -53 29 -26 l4 28 81 -7 c109 -9
220 -9 287 0 l55 7 121 -124 c150 -155 216 -261 284 -458 53 -157 44 -147 142
-137 107 11 127 3 169 -68 19 -32 41 -69 50 -84 30 -48 89 -153 89 -157 0 -3
16 -40 36 -82 20 -42 51 -121 69 -175 20 -61 42 -106 57 -120 15 -14 35 -53
48 -96 37 -118 95 -207 175 -272 39 -32 76 -64 83 -71 7 -7 75 -76 150 -154
75 -77 183 -175 239 -217 105 -79 243 -172 278 -188 11 -5 27 -13 35 -18 36
-21 193 -80 295 -110 175 -52 200 -55 435 -55 244 0 342 14 510 71 139 47 299
138 279 158 -4 3 -31 -5 -60 -18 -67 -29 -199 -70 -299 -91 -218 -46 -507 -47
-685 -2 -113 29 -213 61 -265 83 -205 88 -244 110 -385 214 -142 104 -266 220
-421 392 -79 88 -168 180 -197 206 -61 53 -113 128 -128 186 -20 81 -51 171
-75 222 -14 29 -42 106 -64 172 -64 201 -117 281 -217 331 -40 20 -56 22 -156
19 l-112 -4 -21 100 c-25 121 -32 138 -88 224 -45 70 -192 231 -211 231 -21 0
-97 62 -87 72 6 6 79 5 188 -1 98 -6 274 -13 389 -16 116 -3 242 -10 280 -15
39 -5 387 -15 775 -21 1154 -17 1407 -24 1425 -39 12 -10 15 -44 15 -204 0
-130 5 -207 14 -241 36 -133 96 -170 155 -98 72 87 93 172 96 388 l3 160 78
-2 c44 -2 90 -5 103 -8 28 -7 30 9 -35 -210 -29 -98 -41 -206 -26 -239 72
-162 104 -207 241 -346 133 -134 252 -213 411 -274 99 -38 155 -48 269 -52 57
-2 109 -8 114 -13 7 -7 4 -28 -6 -63 -19 -60 -27 -97 -62 -292 -13 -76 -31
-157 -40 -181 l-17 -42 -76 -6 c-131 -10 -273 -65 -472 -183 -79 -46 -239
-202 -271 -264 -28 -53 -39 -87 -31 -94 3 -3 51 38 106 92 116 112 173 152
335 233 142 72 274 113 345 106 153 -14 197 -27 213 -64 37 -84 66 -195 70
-273 6 -90 0 -110 -52 -195 -13 -22 -33 -59 -45 -81 -11 -23 -27 -47 -35 -54
-8 -7 -15 -23 -15 -37 0 -13 -5 -34 -12 -46 -18 -32 -29 -139 -35 -342 -3
-110 0 -200 6 -230 6 -27 13 -88 15 -135 3 -47 11 -107 17 -135 20 -86 9 -587
-20 -930 -18 -201 -76 -401 -149 -510 -58 -86 -139 -143 -253 -179 -151 -49
-287 -67 -619 -85 -164 -9 -205 -15 -195 -31 15 -24 83 -42 205 -56 74 -9 151
-21 171 -26 25 -7 47 -7 70 0 19 6 64 13 101 16 37 4 107 18 155 32 49 14 115
30 148 35 179 26 225 38 267 67 99 68 157 151 228 327 14 36 40 148 51 225 25
173 4 724 -31 816 -6 14 -10 49 -10 77 0 29 -7 81 -16 117 -27 115 -36 182
-44 340 -9 158 -25 379 -36 506 l-7 70 36 21 c54 32 142 171 173 272 18 61 18
231 -1 320 -19 94 -39 139 -74 170 -119 108 -123 112 -118 134 3 12 9 47 13
77 4 30 10 60 14 65 4 6 15 72 25 148 10 76 22 140 26 143 5 3 9 17 9 32 1 15
7 45 15 67 8 22 17 59 21 83 l6 44 -103 -7 c-168 -11 -299 15 -474 94 -91 42
-160 94 -275 210 -117 119 -195 221 -211 278 -15 56 -7 169 19 248 10 33 29
93 41 132 18 60 27 74 46 79 29 7 285 -2 370 -13 l60 -8 3 -105 c2 -58 -1
-127 -7 -155 -6 -27 -12 -157 -14 -287 l-2 -238 63 0 c41 0 64 4 67 13 8 26
37 654 42 907 4 257 1 292 -28 368 -18 47 -79 13 -100 -57 -6 -20 -13 -97 -15
-171 -7 -199 7 -180 -132 -180 -169 0 -280 10 -286 26 -3 7 1 36 9 64 8 27 22
74 30 103 8 28 19 61 25 72 32 64 86 262 106 390 7 50 18 113 23 140 18 99 23
338 11 515 -6 96 -16 182 -20 190 -5 9 -11 69 -15 135 -3 66 -10 136 -15 155
-5 19 -18 76 -30 125 -11 50 -31 122 -46 160 -14 39 -29 84 -33 100 -5 17 -18
59 -30 94 -12 35 -20 65 -18 67 7 7 93 -81 141 -145 73 -95 149 -226 186 -321
62 -159 70 -183 70 -196 0 -8 5 -22 10 -32 10 -16 34 -106 66 -247 7 -33 14
-77 14 -99 0 -45 34 -106 59 -106 12 0 22 13 30 40 6 22 16 40 21 40 21 0 180
258 180 292 0 4 8 27 19 51 24 55 68 175 76 207 4 14 10 34 15 45 11 28 49
196 62 280 6 39 13 171 15 295 4 229 -7 371 -31 418 -11 21 -13 -5 -15 -179
-1 -112 -6 -242 -12 -289 -5 -47 -14 -125 -19 -175 -5 -49 -14 -99 -19 -110
-6 -11 -18 -49 -26 -85 -17 -68 -76 -243 -99 -295 -8 -16 -26 -59 -41 -95 -32
-77 -114 -220 -125 -220 -10 0 -40 75 -40 102 0 21 -96 314 -110 333 -3 6 -15
33 -25 60 -10 28 -29 70 -43 95 -14 25 -32 59 -40 75 -39 75 -165 238 -252
326 -68 69 -212 175 -291 214 -39 19 -75 35 -81 35 -5 0 -27 9 -49 19 -21 11
-58 22 -82 26 -23 4 -46 11 -52 15 -5 4 -48 14 -95 23 -47 9 -101 19 -120 23
-63 12 -254 16 -290 5 -19 -5 -78 -18 -130 -29 -191 -40 -265 -67 -301 -108
-33 -37 -53 -90 -60 -159 -9 -95 -47 -318 -58 -348 -5 -13 -17 -55 -26 -93
-10 -38 -21 -73 -25 -79 -4 -5 -10 -23 -14 -40 -44 -190 -353 -763 -524 -970
-138 -168 -224 -257 -389 -404 -168 -149 -232 -191 -398 -262 -56 -25 -201
-41 -435 -50 -140 -5 -313 -14 -385 -20 -125 -10 -261 -14 -355 -9 -25 2 -54
1 -65 -1 -16 -3 -21 4 -28 41 -31 173 -53 254 -87 325 -63 134 -177 272 -278
336 -70 44 -123 58 -341 86 -24 3 -60 1 -80 -5 -20 -6 -67 -18 -106 -28 -38
-9 -77 -20 -85 -24 -8 -4 -37 -17 -65 -30 -27 -12 -70 -34 -95 -48 -25 -15
-57 -31 -71 -37 -35 -14 -170 -162 -227 -249 -26 -39 -50 -73 -53 -76 -18 -14
-131 -268 -159 -355 -17 -55 -36 -113 -42 -130 -6 -16 -13 -121 -15 -232 -5
-185 -3 -208 16 -269 12 -37 21 -73 21 -80 0 -20 107 -239 132 -270 13 -16 57
-76 98 -134 81 -115 283 -328 425 -449 112 -95 228 -179 365 -263 90 -55 137
-78 275 -138 64 -28 171 -54 245 -59 l85 -6 11 -50 c26 -118 90 -263 159 -362
25 -36 45 -66 43 -68 -2 -1 -33 -9 -70 -19 -82 -20 -297 -23 -316 -4 -9 9 -12
-3 -13 -57 -1 -126 -36 -430 -60 -517 -34 -131 -147 -271 -261 -326 -114 -55
-323 -105 -433 -105 -89 1 -305 31 -380 53 -16 5 -73 18 -125 30 -216 49 -468
156 -561 239 l-43 38 85 6 c101 7 178 37 244 95 84 74 175 208 175 258 0 13
-2 24 -5 24 -2 0 -55 -38 -117 -85 -61 -47 -119 -85 -128 -85 -41 0 -215 82
-224 105 -3 8 9 14 38 17 96 11 174 76 230 193 52 110 61 154 61 315 0 181
-13 240 -84 391 -17 37 -31 70 -31 74 0 6 -108 159 -140 198 -8 10 -80 85
-160 167 -288 294 -465 517 -525 661 -14 33 -49 104 -77 157 -122 234 -173
352 -208 482 -6 25 -19 74 -28 110 -10 36 -20 70 -24 75 -3 6 -9 33 -13 60 -4
28 -11 64 -15 80 -12 37 -44 212 -77 415 -25 158 -46 337 -62 535 -12 145 -12
553 -1 635 42 299 88 465 176 642 30 59 54 113 54 119 0 14 92 170 176 299 56
86 137 192 247 324 22 25 37 51 35 58 -3 9 -7 9 -14 -3z m5941 -588 c50 -5
117 -16 150 -25 234 -67 212 -59 321 -112 75 -36 84 -44 127 -109 25 -38 54
-88 65 -110 28 -58 82 -221 82 -249 0 -14 4 -27 9 -30 4 -3 13 -38 20 -78 6
-40 16 -100 22 -133 27 -151 39 -325 45 -632 6 -280 4 -358 -10 -490 -10 -87
-21 -167 -26 -178 -5 -11 -13 -55 -19 -98 -6 -43 -20 -97 -30 -120 -11 -23
-22 -64 -26 -92 -7 -49 -39 -165 -54 -195 -10 -19 -152 -26 -193 -9 -27 11
-28 14 -28 79 l0 68 37 19 c40 19 79 75 67 94 -8 13 -98 6 -118 -9 -6 -5 -32
-14 -58 -21 -74 -18 -134 -66 -164 -131 -14 -30 -29 -62 -33 -70 -9 -17 -90
-17 -761 7 -223 7 -605 18 -850 23 -245 5 -472 11 -505 15 -33 3 -91 9 -129
13 -41 4 -71 12 -74 20 -2 6 2 12 8 12 32 0 208 95 258 140 10 8 30 23 45 33
73 47 382 367 497 513 138 178 324 495 425 729 73 168 138 368 151 465 4 28
11 53 15 56 5 3 9 96 9 207 0 176 2 205 18 229 28 43 89 86 145 102 131 38
219 57 300 65 48 5 91 12 95 16 4 3 23 4 42 0 19 -3 76 -10 125 -14z m-4087
-7035 c6 -13 39 -48 74 -76 35 -29 75 -64 89 -79 14 -14 52 -48 84 -76 32 -27
77 -66 99 -86 59 -52 219 -181 246 -199 12 -8 37 -27 56 -41 18 -14 63 -46
101 -70 37 -24 70 -46 73 -49 3 -3 39 -25 80 -48 41 -24 86 -50 100 -58 14 -8
60 -33 103 -54 43 -21 84 -43 90 -48 7 -4 46 -23 87 -41 41 -18 89 -39 105
-46 45 -21 241 -90 320 -114 39 -11 93 -27 120 -35 126 -38 432 -99 555 -111
41 -4 80 -11 85 -15 17 -14 323 -22 415 -11 203 23 298 53 359 110 l34 32 66
-32 c78 -38 173 -79 184 -79 10 0 97 -39 97 -44 0 -9 -53 -58 -115 -105 -79
-60 -275 -158 -380 -189 -151 -46 -174 -51 -290 -67 -147 -21 -547 -15 -685 9
-130 23 -230 44 -285 60 -27 9 -93 27 -145 41 -52 14 -111 32 -130 40 -19 7
-73 28 -120 45 -84 32 -123 48 -230 97 -49 23 -89 42 -241 118 -25 13 -87 48
-138 79 -52 31 -95 56 -96 56 -6 0 -297 201 -347 240 -29 23 -66 51 -82 63
-166 127 -546 487 -546 518 0 9 29 52 65 95 35 44 65 84 65 91 0 15 52 103 61
103 3 0 11 -11 17 -24z m7652 -1626 c422 -28 648 -32 1363 -23 402 5 732 9
733 9 1 -1 -2 -71 -5 -156 l-6 -155 -165 -7 c-248 -11 -433 -58 -510 -131 -43
-40 -84 -121 -105 -207 -9 -36 -20 -78 -25 -95 -5 -16 -14 -84 -21 -150 -13
-127 -6 -491 12 -615 5 -36 16 -133 24 -217 18 -185 39 -248 104 -313 25 -25
60 -53 76 -62 17 -8 57 -29 90 -46 68 -35 169 -82 178 -82 3 0 38 -15 79 -34
40 -19 82 -36 93 -38 19 -3 20 -10 17 -177 -2 -95 -8 -185 -14 -199 -6 -15
-14 -79 -18 -142 -9 -139 -24 -186 -60 -193 -14 -3 -70 -21 -125 -41 -133 -49
-240 -75 -355 -88 -199 -22 -943 -7 -1040 21 -19 5 -71 15 -115 21 -96 14
-221 46 -252 66 -13 8 -23 25 -23 38 0 12 -8 30 -18 40 -11 9 -24 33 -30 54
-6 20 -18 237 -27 482 -9 245 -21 459 -26 475 -14 48 -15 286 -1 312 15 26 16
97 2 155 -20 87 -27 188 -14 199 8 7 82 6 228 -2 229 -13 344 -6 393 26 12 8
27 15 33 15 6 0 18 7 26 15 8 8 23 20 32 27 58 42 120 163 133 258 15 102 -5
321 -31 355 -4 6 -11 25 -15 42 -8 42 -86 128 -139 155 -76 38 -294 36 -476
-5 -36 -8 -104 -18 -152 -22 l-88 -7 0 195 c0 108 -5 208 -10 222 -15 41 -4
48 59 40 31 -3 117 -10 191 -15z m2200 -478 c80 -10 190 -38 203 -52 26 -25
51 -612 37 -860 -14 -228 -64 -504 -122 -670 l-23 -64 -65 -23 c-50 -18 -78
-22 -120 -18 -30 3 -95 9 -145 14 -92 9 -138 21 -150 40 -3 6 -14 11 -23 11
-9 1 -35 9 -57 20 -22 11 -44 19 -49 20 -5 0 -52 21 -104 47 -128 64 -138 80
-152 238 -5 66 -17 176 -25 245 -22 185 -30 573 -16 698 14 115 43 208 75 235
37 31 149 84 216 101 36 10 76 21 90 25 32 11 331 6 430 -7z m-1786 -33 c98
-27 149 -143 150 -339 1 -110 0 -118 -32 -181 -39 -80 -105 -132 -192 -150
-76 -16 -223 -5 -302 22 -89 32 -209 32 -259 1 -36 -22 -37 -24 -49 -120 -10
-78 -9 -191 3 -582 9 -266 14 -487 11 -489 -9 -10 -18 12 -25 62 -28 211 -100
400 -203 537 -57 76 -251 270 -270 270 -8 0 -19 7 -26 15 -7 8 -41 29 -77 47
-76 39 -92 60 -60 77 39 21 246 277 402 497 36 51 152 180 200 222 71 63 179
95 380 115 90 8 313 6 349 -4z m-1447 -901 c103 -45 345 -258 418 -368 16 -25
41 -61 56 -80 73 -97 125 -222 155 -380 8 -41 19 -84 24 -95 5 -11 14 -54 21
-95 16 -97 54 -208 80 -236 17 -18 20 -32 17 -85 l-3 -64 -42 60 c-23 33 -62
87 -87 120 -24 33 -72 112 -106 175 -74 136 -192 308 -267 388 -29 31 -72 84
-96 116 -141 197 -198 246 -329 287 -40 13 -75 24 -77 26 -7 4 100 189 125
216 27 30 65 35 111 15z"/>
<path d="M12032 13890 c-68 -16 -166 -76 -247 -153 -102 -95 -174 -190 -220
-291 -36 -80 -70 -184 -62 -192 2 -3 26 32 53 78 77 132 162 254 201 288 46
40 230 125 311 143 37 9 174 -19 187 -37 7 -9 17 -16 22 -16 17 0 43 35 49 68
4 18 10 32 14 32 18 0 17 41 -2 65 -19 24 -22 25 -146 24 -70 -1 -142 -5 -160
-9z"/>
<path d="M7334 13286 c-73 -32 -246 -256 -336 -434 -84 -169 -112 -341 -71
-444 54 -139 196 -266 408 -368 107 -51 264 -85 288 -61 6 6 20 11 30 11 62 0
154 81 190 168 23 55 27 77 27 167 0 58 -4 107 -10 110 -5 3 -10 14 -10 24 0
29 -60 111 -101 137 -65 41 -169 25 -220 -32 -54 -61 -72 -160 -40 -211 33
-52 42 -45 57 42 8 51 48 113 80 125 50 20 85 12 120 -26 19 -19 34 -43 34
-53 0 -9 5 -22 12 -29 8 -8 12 -43 11 -95 0 -68 -5 -91 -27 -134 -49 -99 -156
-146 -273 -123 -79 16 -242 97 -331 164 -169 128 -216 231 -181 398 30 143
247 497 352 575 36 26 86 38 118 28 29 -9 239 -213 239 -232 0 -7 5 -13 10
-13 14 0 13 5 -11 53 -46 88 -169 234 -216 253 -41 18 -109 17 -149 0z"/>
<path d="M8921 9075 c-1 -27 6 -69 14 -92 8 -23 19 -66 24 -95 14 -77 64 -220
105 -298 191 -364 352 -559 601 -724 91 -61 248 -146 269 -146 7 0 41 -9 74
-19 70 -23 220 -37 241 -23 25 18 -6 47 -81 76 -130 50 -300 131 -443 211
-166 93 -358 280 -507 495 -61 87 -176 300 -199 368 -10 30 -23 60 -28 66 -4
6 -11 25 -15 41 -3 17 -17 66 -30 110 l-25 80 0 -50z"/>
<path d="M16172 8629 c31 -83 32 -89 20 -122 -7 -18 -12 -42 -12 -53 0 -18
-41 -104 -128 -269 -23 -44 -26 -62 -27 -150 0 -110 -11 -80 108 -308 10 -20
24 -60 31 -89 6 -28 16 -53 23 -55 23 -8 47 47 47 111 1 64 -9 94 -50 151 -46
64 -74 140 -74 200 0 48 8 76 50 167 28 60 50 113 50 119 0 5 4 17 9 27 42 82
23 244 -33 274 -15 8 -18 7 -14 -3z"/>
<path d="M9840 8411 c0 -5 5 -13 10 -16 6 -3 10 -2 10 4 0 5 -4 13 -10 16 -5
3 -10 2 -10 -4z"/>
<path d="M16630 8180 c0 -5 4 -10 8 -10 10 0 58 -104 67 -143 7 -37 -9 -95
-51 -186 -44 -94 -54 -176 -30 -249 18 -52 68 -108 88 -96 11 7 1 93 -13 110
-21 26 -22 109 -2 155 11 24 26 60 33 79 7 19 18 41 23 47 5 7 12 42 14 77 5
54 2 71 -18 112 -28 57 -80 114 -103 114 -9 0 -16 -4 -16 -10z"/>
<path d="M15530 7900 c0 -117 -4 -162 -22 -232 -20 -77 -21 -93 -10 -144 14
-69 51 -135 86 -154 29 -15 45 -8 28 13 -21 25 -62 167 -62 216 0 26 7 68 16
94 17 50 15 149 -5 267 -20 115 -31 94 -31 -60z"/>
<path d="M6120 7170 c0 -13 28 -25 38 -16 3 4 0 11 -8 16 -20 13 -30 12 -30 0z"/>
<path d="M6735 6871 c-11 -4 -58 -11 -105 -15 -47 -4 -116 -14 -155 -22 -38
-8 -104 -22 -145 -30 -41 -9 -82 -18 -90 -21 -8 -3 -32 -7 -54 -8 -39 -4 -65
-18 -49 -28 4 -3 55 4 113 15 232 43 371 57 573 58 195 0 463 -22 498 -41 10
-5 28 -9 40 -9 68 0 450 -107 629 -177 235 -91 477 -221 662 -355 55 -40 111
-80 124 -89 90 -59 410 -379 486 -486 13 -17 52 -69 88 -115 79 -100 177 -248
256 -383 61 -106 215 -407 251 -490 65 -150 88 -209 119 -295 19 -52 41 -109
49 -127 8 -17 15 -36 15 -43 0 -6 8 -32 19 -58 10 -26 31 -87 46 -137 15 -49
33 -108 41 -130 14 -39 50 -172 100 -365 27 -104 41 -167 74 -335 12 -60 25
-119 30 -130 10 -23 48 -239 60 -335 4 -36 10 -72 13 -80 8 -18 57 -384 68
-495 4 -44 14 -136 22 -205 11 -95 17 -313 22 -897 7 -711 9 -774 25 -788 20
-18 45 -11 54 13 3 9 13 35 22 57 31 76 29 515 -6 1060 -5 77 -14 219 -19 315
-6 96 -17 236 -25 310 -40 370 -57 508 -65 540 -6 19 -20 107 -31 195 -26 187
-40 263 -115 615 -39 184 -153 600 -185 675 -5 11 -22 63 -39 115 -40 125 -98
284 -122 337 -10 24 -19 46 -19 49 0 3 -6 20 -14 37 -8 18 -29 66 -46 107 -18
41 -47 104 -65 140 -18 36 -58 116 -90 179 -86 172 -196 354 -326 540 -17 25
-68 89 -113 144 -44 54 -93 114 -107 133 -15 18 -78 85 -140 147 -483 483
-1032 756 -1764 878 -179 29 -565 49 -610 30z"/>
</g>
</svg>
